<svg xmlns="http://www.w3.org/2000/svg" width="1280" height="720" viewBox="0 0 1280 720">
<defs>
<linearGradient id="bg" x1="0" y1="0" x2="1" y2="1">
<stop offset="0%" stop-color="#0D1117"/>
<stop offset="100%" stop-color="#161B22"/>
</linearGradient>
<style>
*{font-family:-apple-system,BlinkMacSystemFont,'Segoe UI',Helvetica,Arial,sans-serif}
.title{fill:#F8FAFC;font-size:40px;font-weight:700}
.h{fill:#F59E0B;font-size:18px;font-weight:700}
.t{fill:#D1D5DB;font-size:18px}
.card{fill:#161B22;stroke:#30363D;stroke-width:1.2}
</style>
</defs>

<rect width="1280" height="720" rx="28" fill="url(#bg)"/>
<rect x="20" y="20" width="1240" height="680" rx="24" fill="#1B2129" stroke="#30363D"/>

<text x="60" y="82" class="title">MISSION CONTROL</text>
<line x1="60" y1="105" x2="1220" y2="105" stroke="#30363D"/>

<rect x="60" y="135" width="1160" height="90" rx="16" class="card"/>
<text x="90" y="168" class="h">CURRENT MISSION</text>
<text x="90" y="205" fill="#F8FAFC" font-size="28" font-weight="700">
Become a Job-Ready Data Analyst
</text>

<rect x="60" y="260" width="540" height="270" rx="16" class="card"/>
<text x="90" y="295" class="h">ROADMAP</text>
<text x="90" y="335" class="t">✓ SQL</text>
<text x="90" y="370" class="t">✓ Excel</text>
<text x="90" y="405" class="t">◐ Python</text>
<text x="90" y="440" class="t">○ Power BI</text>
<text x="90" y="475" class="t">○ Statistics</text>
<text x="90" y="510" class="t">○ Portfolio Projects</text>

<rect x="620" y="260" width="600" height="270" rx="16" class="card"/>
<text x="650" y="295" class="h">MISSION STATUS</text>

<text x="650" y="340" class="t">✓ Foundation Built</text>
<text x="675" y="365" class="t">SQL • Excel • Analytics Fundamentals</text>

<text x="650" y="415" class="t">◐ Portfolio Under Construction</text>
<text x="675" y="440" class="t">Building business case studies</text>

<text x="650" y="490" class="t">○ Interview Preparation</text>
<text x="675" y="515" class="t">DSA • SQL • Business Questions</text>

<rect x="60" y="560" width="560" height="100" rx="16" class="card"/>
<text x="90" y="595" class="h">NEXT MILESTONE</text>
<text x="90" y="630" class="t">Complete DA-00 Analytics Learning Lab</text>

<rect x="640" y="560" width="580" height="100" rx="16" class="card"/>
<text x="670" y="595" class="h">FINAL GOAL</text>
<text x="670" y="630" class="t">Secure a Data Analyst role (Pune / Remote)</text>

</svg>
